<?xml version="1.0" encoding="UTF-8"?>
<svg width="320" height="300" viewBox="0 0 320 300" fill="none" xmlns="http://www.w3.org/2000/svg">
  <!-- Background elements -->
  <circle cx="160" cy="150" r="130" fill="#1A2F4B" fill-opacity="0.05"/>
  <path d="M60 80C60 80 100 30 170 50C240 70 260 140 240 200S140 260 90 230C40 200 60 150 60 80Z" fill="#D78F23" fill-opacity="0.08"/>
  
  <!-- Document base -->
  <g filter="url(#filter0_d)">
    <rect x="80" y="40" width="160" height="200" rx="12" fill="white"/>
    <rect x="80" y="40" width="160" height="200" rx="12" stroke="#1A2F4B" stroke-width="2"/>
  </g>
  
  <!-- Document header -->
  <rect x="100" y="60" width="120" height="10" rx="5" fill="#D78F23" fill-opacity="0.7"/>
  <rect x="100" y="80" width="90" height="8" rx="4" fill="#1A2F4B" fill-opacity="0.2"/>
  
  <!-- Form elements -->
  <rect x="100" y="100" width="120" height="20" rx="4" fill="#1A2F4B" fill-opacity="0.05"/>
  <rect x="100" y="130" width="120" height="20" rx="4" fill="#1A2F4B" fill-opacity="0.05"/>
  <rect x="100" y="160" width="120" height="40" rx="4" fill="#1A2F4B" fill-opacity="0.05"/>
  
  <!-- Document bottom -->
  <rect x="100" y="210" width="70" height="20" rx="10" fill="#D78F23"/>
  <circle cx="210" cy="200" r="20" fill="#D78F23" fill-opacity="0.2"/>
  <path d="M200 200L210 210L220 190" stroke="#D78F23" stroke-width="4" stroke-linecap="round" stroke-linejoin="round"/>
  
  <!-- Decorative elements -->
  <circle cx="40" cy="70" r="10" fill="#D78F23" fill-opacity="0.5"/>
  <circle cx="270" cy="90" r="15" fill="#1A2F4B" fill-opacity="0.1"/>
  <circle cx="250" cy="230" r="12" fill="#D78F23" fill-opacity="0.3"/>
  
  <!-- Circuit paths -->
  <path d="M30 120C30 120 60 130 70 160C80 190 100 210 140 210" stroke="#1A2F4B" stroke-opacity="0.1" stroke-width="2" stroke-dasharray="4 4"/>
  <path d="M290 170C290 170 260 160 250 130C240 100 220 80 180 80" stroke="#D78F23" stroke-opacity="0.2" stroke-width="2" stroke-dasharray="4 4"/>
  
  <defs>
    <filter id="filter0_d" x="70" y="34" width="180" height="220" filterUnits="userSpaceOnUse" color-interpolation-filters="sRGB">
      <feFlood flood-opacity="0" result="BackgroundImageFix"/>
      <feColorMatrix in="SourceAlpha" type="matrix" values="0 0 0 0 0 0 0 0 0 0 0 0 0 0 0 0 0 0 127 0"/>
      <feOffset dy="4"/>
      <feGaussianBlur stdDeviation="5"/>
      <feColorMatrix type="matrix" values="0 0 0 0 0 0 0 0 0 0 0 0 0 0 0 0 0 0 0.15 0"/>
      <feBlend mode="normal" in2="BackgroundImageFix" result="effect1_dropShadow"/>
      <feBlend mode="normal" in="SourceGraphic" in2="effect1_dropShadow" result="shape"/>
    </filter>
  </defs>
</svg> 