<svg width="100" height="120" viewBox="0 0 100 120" fill="none" xmlns="http://www.w3.org/2000/svg">
  <g opacity="0.3">
    <!-- Book Cover -->
    <path d="M85 15H25C22.2386 15 20 17.2386 20 20V100C20 102.761 22.2386 105 25 105H85C87.7614 105 90 102.761 90 100V20C90 17.2386 87.7614 15 85 15Z" fill="#D78F23"/>
    
    <!-- Book Spine -->
    <path d="M20 20C20 17.2386 22.2386 15 25 15H30V105H25C22.2386 105 20 102.761 20 100V20Z" fill="#A66E1B"/>
    
    <!-- Book Pages -->
    <path d="M85 15H30V105H85C87.7614 105 90 102.761 90 100V20C90 17.2386 87.7614 15 85 15Z" fill="#F5F5F5"/>
    
    <!-- Page Lines -->
    <path d="M40 30H80" stroke="#D9D9D9" stroke-width="1"/>
    <path d="M40 40H80" stroke="#D9D9D9" stroke-width="1"/>
    <path d="M40 50H80" stroke="#D9D9D9" stroke-width="1"/>
    <path d="M40 60H80" stroke="#D9D9D9" stroke-width="1"/>
    <path d="M40 70H80" stroke="#D9D9D9" stroke-width="1"/>
    <path d="M40 80H80" stroke="#D9D9D9" stroke-width="1"/>
    <path d="M40 90H80" stroke="#D9D9D9" stroke-width="1"/>
    
    <!-- Law Symbol on Cover -->
    <circle cx="25" cy="45" r="10" fill="#D78F23"/>
    <path d="M20 42H30" stroke="#F5F5F5" stroke-width="2"/>
    <path d="M20 45H30" stroke="#F5F5F5" stroke-width="2"/>
    <path d="M20 48H30" stroke="#F5F5F5" stroke-width="2"/>
  </g>
</svg> 