<?xml version="1.0" encoding="UTF-8"?>
<svg width="120" height="120" viewBox="0 0 120 120" fill="none" xmlns="http://www.w3.org/2000/svg">
  <circle cx="60" cy="60" r="55" fill="#D78F23" fill-opacity="0.9"/>
  <g filter="url(#filter0_d)">
    <path d="M60 30L86 46V74L60 90L34 74V46L60 30Z" fill="white"/>
    <path d="M60 30L86 46V74L60 90L34 74V46L60 30Z" stroke="#1A2F4B" stroke-width="2"/>
    <path d="M60 52L45 44M60 52L75 44M60 52V68" stroke="#1A2F4B" stroke-width="3" stroke-linecap="round"/>
    <path d="M51 63L69 63" stroke="#D78F23" stroke-width="3" stroke-linecap="round"/>
    <path d="M51 57L69 57" stroke="#D78F23" stroke-width="3" stroke-linecap="round"/>
    <path d="M41 50L46 53M79 50L74 53" stroke="#D78F23" stroke-width="3" stroke-linecap="round"/>
  </g>
  <defs>
    <filter id="filter0_d" x="28" y="26" width="64" height="72" filterUnits="userSpaceOnUse" color-interpolation-filters="sRGB">
      <feFlood flood-opacity="0" result="BackgroundImageFix"/>
      <feColorMatrix in="SourceAlpha" type="matrix" values="0 0 0 0 0 0 0 0 0 0 0 0 0 0 0 0 0 0 127 0"/>
      <feOffset dy="2"/>
      <feGaussianBlur stdDeviation="3"/>
      <feColorMatrix type="matrix" values="0 0 0 0 0 0 0 0 0 0 0 0 0 0 0 0 0 0 0.15 0"/>
      <feBlend mode="normal" in2="BackgroundImageFix" result="effect1_dropShadow"/>
      <feBlend mode="normal" in="SourceGraphic" in2="effect1_dropShadow" result="shape"/>
    </filter>
  </defs>
</svg> 